<svg class=" " viewBox="0 0 1600 800"><path d="M294.897,711.111C295.697,719.355,297.364,727.132,302.289,735.354C309.218,746.92,323.288,761.904,337.688,770.889C353.367,780.67,373.734,786.764,393.97,790.059C416.295,793.693,443.132,792.912,466.332,789.658C488.622,786.531,509.796,780.353,530.653,771.637C552.49,762.512,573.449,750.643,594.246,735.354C617.923,717.946,646.728,691.955,663.72,670.707C676.787,654.367,694.19,632.331,691.981,622.222C690.652,616.143,682.824,613.334,675.377,610.551C663.866,606.249,648.895,606.361,627.136,605.588C581.947,603.982,470.918,602.911,418.09,612.17C384.519,618.055,356.927,627.557,337.797,638.384C325.135,645.55,316.756,653.945,309.844,662.626C304.013,669.949,299.972,677.713,297.487,685.877C295.049,693.89,294.095,702.863,294.897,711.111" stroke="#71717a" stroke-width="1" fill="none" stroke-linecap="round" stroke-miterlimit="4"></path><path d="M784.708,573.737C785.763,577.132,789.401,579.862,793.847,581.818C801.322,585.108,814.04,585.224,828.141,585.438C850.755,585.782,887.93,582.82,916.583,578.814C944.149,574.96,972.623,569.128,996.985,562.26C1018.049,556.321,1036.15,550.178,1054.708,541.414C1073.557,532.513,1095.661,520.147,1109.14,509.091C1118.816,501.155,1127.096,493.61,1130.957,484.848C1134.293,477.276,1136.116,467.838,1133.323,460.606C1130.117,452.305,1119.243,444.519,1109.548,439.057C1098.462,432.812,1084.041,429.461,1069.347,427.07C1052.323,424.3,1031.754,423.862,1013.065,425.223C994.232,426.596,974.585,430.309,956.784,435.365C939.834,440.18,924.265,446.404,908.543,454.369C892.038,462.732,877.033,471.067,860.21,484.848C837.425,503.515,796.5,545.205,787.94,560.781C784.884,566.34,783.605,570.186,784.708,573.737" stroke="#71717a" stroke-width="1" fill="none" stroke-linecap="round" stroke-miterlimit="4"></path><path d="M4,39.705C4,39.705,91.468,39.09,130.381,32.323C165.032,26.297,226.687,4,226.687,4" stroke="#71717a" stroke-width="1" fill="none" stroke-linecap="round" stroke-miterlimit="4"></path><path d="M253.168,796C253.168,796,224.441,762.834,217.996,743.434C211.476,723.808,210.133,699.032,214.643,678.788C219.132,658.64,230.425,638.055,244.83,622.222C260.223,605.303,284.132,591.266,305.883,581.818C327.066,572.617,345.005,570.142,373.415,565.657C420.407,558.238,510.384,557.788,562.814,550.805C600.506,545.785,629.822,541.153,659.296,532.592C685.548,524.967,703.653,517.336,731.658,503.791C773.788,483.414,837.193,436.025,884.422,415.878C921.544,400.043,957.005,390.667,988.945,385.346C1014.995,381.006,1037.247,380.776,1061.307,382.017C1085.488,383.265,1111.37,386.931,1133.668,392.886C1153.933,398.299,1174.658,405.217,1189.95,414.904C1202.855,423.079,1216.217,435.3,1221.256,444.444C1224.372,450.1,1224.974,454.765,1224.412,460.606C1223.703,467.967,1221.193,476.07,1214.597,484.848C1202.264,501.264,1169.551,524.843,1142.724,541.414C1113.605,559.401,1085.517,570.99,1045.226,587.302C983.256,612.391,859.921,643.33,804.02,669.781C771.719,685.064,756.953,696.399,731.658,714.587C700.696,736.851,633.494,796,633.494,796" stroke="#71717a" stroke-width="1" fill="none" stroke-linecap="round" stroke-miterlimit="4"></path><path d="M1341.03,4C1341.03,4,1305.513,29.352,1286.432,39.466C1267.388,49.561,1246.928,57.779,1226.665,64.646C1206.716,71.408,1186.54,76.841,1165.829,80.492C1144.833,84.194,1122.338,86.631,1101.508,86.571C1081.818,86.514,1060.729,85.226,1044.073,80.808C1030.249,77.141,1015.726,72.487,1007.745,64.646C1001.199,58.216,996.048,49.192,996.439,40.404C996.931,29.382,1017.55,4,1017.55,4" stroke="#71717a" stroke-width="1" fill="none" stroke-linecap="round" stroke-miterlimit="4"></path><path d="M4,80.312C4,80.312,98.728,77.408,146.877,72.727C196.524,67.901,258.28,60.028,297.487,51.385C323.307,45.694,346.678,39.952,360.64,32.323C368.828,27.849,374.5,22.968,377.889,17.585C380.557,13.348,381.506,4,381.506,4" stroke="#71717a" stroke-width="1" fill="none" stroke-linecap="round" stroke-miterlimit="4"></path><path d="M167.839,796C167.839,796,147.113,751.482,144.359,727.273C141.432,701.547,144.332,670.351,152.764,645.692C160.838,622.077,175.05,598.801,192.478,581.818C209.896,564.845,235.011,552.512,257.286,543.81C278.138,535.665,293.836,533.664,321.608,529.803C371.145,522.917,474.429,523.56,530.653,516.858C569.11,512.275,596.621,508.144,627.136,499.758C656.05,491.812,677.817,483.294,709.444,468.687C756.006,447.182,825.043,397.348,876.382,376.536C916.538,360.257,954.287,350.834,988.945,345.88C1017.719,341.767,1042.009,342.336,1069.347,344.428C1098.228,346.638,1129.341,352.089,1157.789,359.681C1185.574,367.095,1214.872,376.613,1238.191,389.098C1258.71,400.085,1282.405,416.979,1291.661,428.283C1296.458,434.142,1298.256,438.365,1299.148,444.444C1300.193,451.573,1300.018,460.021,1295.668,468.687C1288.379,483.206,1268.517,500.886,1246.937,517.172C1215.172,541.144,1169.036,564.575,1116.955,589.899C1043.788,625.476,903.438,669.766,845.625,703.03C815.428,720.405,797.554,734.141,781.739,751.515C768.962,765.552,754.138,796,754.138,796" stroke="#71717a" stroke-width="1" fill="none" stroke-linecap="round" stroke-miterlimit="4"></path><path d="M1430.579,4C1430.579,4,1386.986,34.472,1361.973,48.485C1334.096,64.102,1300.986,79.766,1270.352,92.297C1240.957,104.32,1211.648,114.47,1181.91,122.641C1152.677,130.673,1123.08,136.769,1093.467,141.102C1064.116,145.397,1034.522,148.171,1005.025,148.621C975.56,149.069,945.869,148.101,916.583,143.81C886.902,139.46,852.204,131.945,828.141,122.477C809.954,115.321,789.568,106.148,782.863,96.97C779.084,91.797,778.071,85.844,779.518,80.808C781.204,74.944,786.857,71.009,794.997,64.646C813.971,49.816,900.503,4.256,900.503,4.256" stroke="#71717a" stroke-width="1" fill="none" stroke-linecap="round" stroke-miterlimit="4"></path><path d="M4,117.066C4,117.066,189.74,105.64,257.286,105.311C302.307,105.092,320.685,102.965,369.849,109.438C466.705,122.19,704.182,189.432,795.98,207.041C839.362,215.362,862.529,219.377,892.462,222.004C918.234,224.266,938.219,226.118,964.824,223.54C998.39,220.286,1036.886,210.349,1077.387,199.022C1126.59,185.262,1185.704,164.846,1238.191,143.776C1290.593,122.739,1344.62,97.349,1392.064,72.727C1434.745,50.578,1510.767,4,1510.767,4" stroke="#71717a" stroke-width="1" fill="none" stroke-linecap="round" stroke-miterlimit="4"></path><path d="M90.04,796C90.04,796,75.708,734.34,75.795,703.03C75.884,671.041,82.853,630.712,91.207,606.061C96.855,589.392,104.368,577.773,112.563,566.577C119.771,556.73,125.715,549.545,136.683,541.596C152.752,529.951,178.886,516.947,203.741,509.091C231.8,500.222,259.632,497.628,297.487,493.875C354.739,488.198,456.862,492.167,514.573,485.893C553.348,481.677,580.052,477.416,611.055,468.353C641.664,459.406,665.426,449.292,699.497,432.109C750.751,406.26,831.403,343.456,884.422,319.926C920.597,303.871,949.902,294.727,980.905,291.124C1008.632,287.902,1032.053,291.186,1061.307,295.85C1097.709,301.655,1142.135,314.331,1181.91,327.615C1222.556,341.189,1269.499,359.003,1302.513,376.783C1327.862,390.436,1354.537,408.126,1365.847,420.202C1371.441,426.176,1373.953,430.172,1375.435,436.364C1377.119,443.404,1377.53,452.207,1373.84,460.606C1368.244,473.342,1353.842,486.473,1335.266,501.01C1302.231,526.862,1240.435,558.264,1181.91,588.705C1107.248,627.539,974.503,676.028,921.764,711.111C895.304,728.712,876.196,746.817,868.042,759.596C864.099,765.774,863.029,770.071,863.053,775.758C863.079,782.13,869.486,796,869.486,796" stroke="#71717a" stroke-width="1" fill="none" stroke-linecap="round" stroke-miterlimit="4"></path><path d="M4,153.055C4,153.055,173.038,143.06,241.206,145.527C293.079,147.405,323.302,149.126,377.889,159.805C463.099,176.474,640.281,229.202,699.497,253.085C723.39,262.721,737.535,267.687,747.739,278.473C755.489,286.665,761.062,297.307,760.819,307.071C760.557,317.578,752.03,328.668,744.041,339.394C733.95,352.94,719.947,366.641,702.301,379.798C678.613,397.46,644.09,418.614,611.055,431.102C576.415,444.197,543.674,449.968,498.492,455.167C432.001,462.82,315.919,454.803,249.246,459.787C204.252,463.151,166.787,467.399,136.683,474.585C115.667,479.601,100.078,485.31,84.479,492.929C70.433,499.79,57.696,507.567,46.725,517.172C36.062,526.507,26.48,537.769,19.309,549.495C12.355,560.866,4,586.295,4,586.295" stroke="#71717a" stroke-width="1" fill="none" stroke-linecap="round" stroke-miterlimit="4"></path><path d="M979.604,796C979.604,796,964.059,782.655,960.968,775.758C958.594,770.459,957.508,765.742,959.371,759.596C962.713,748.57,972.621,735.328,992.519,719.192C1052.405,670.629,1340.552,542.352,1412.628,501.01C1438.417,486.218,1451.786,479.842,1463.894,468.687C1472.459,460.796,1480.893,452.012,1482.112,444.444C1483.025,438.769,1480.489,433.63,1476.662,428.283C1470.81,420.108,1461.275,414.143,1445.003,404.04C1402.329,377.544,1238.435,313.988,1198.978,282.828C1183.543,270.639,1173.855,260.984,1172.208,250.505C1170.909,242.241,1175.427,234.377,1181.887,226.263C1192.536,212.886,1211.718,202.911,1240.201,185.859C1307.769,145.408,1595.604,4,1595.604,4" stroke="#71717a" stroke-width="1" fill="none" stroke-linecap="round" stroke-miterlimit="4"></path><path d="M4,192.009C4,192.009,167.81,183.58,233.166,186.697C282.314,189.041,320.199,193.881,361.893,202.02C402.418,209.931,442.692,222.066,480.023,234.343C514.751,245.764,552.739,259.873,578.894,272.508C597.258,281.378,613.143,288.017,623.928,298.99C633.019,308.24,641.256,321.112,642.191,331.313C642.968,339.79,638.619,347.995,633.849,355.556C628.307,364.338,619.366,372.483,609.17,379.798C596.676,388.761,578.752,397.204,562.814,403.236C547.2,409.146,533.228,412.595,514.573,415.838C489.678,420.166,463.959,422.128,426.131,423.707C358.786,426.519,207.768,418.518,144.724,422.221C112.634,424.106,95.965,426.407,72.362,431.139C49.071,435.808,4,450.288,4,450.288" stroke="#71717a" stroke-width="1" fill="none" stroke-linecap="round" stroke-miterlimit="4"></path><path d="M1073.966,796C1073.966,796,1049.432,777.637,1045.734,767.677C1042.851,759.912,1043.992,751.477,1047.502,743.434C1052.235,732.59,1064.305,722.059,1077.633,711.111C1096.867,695.311,1125.29,679.808,1155.857,662.626C1196.716,639.66,1254.84,610.308,1302.513,588.26C1346.422,567.953,1391.882,547.92,1431.156,534.312C1463.01,523.274,1490.943,514.265,1519.598,509.832C1545.753,505.785,1596,507.006,1596,507.006" stroke="#71717a" stroke-width="1" fill="none" stroke-linecap="round" stroke-miterlimit="4"></path><path d="M1596,370.28C1596,370.28,1534.93,373.665,1503.518,368.682C1469.368,363.265,1433.045,350.653,1398.995,336.653C1363.931,322.236,1316.651,299.128,1296.32,282.828C1285.68,274.298,1279.428,266.326,1275.817,258.586C1273.223,253.023,1271.902,248.497,1273.029,242.424C1274.737,233.224,1282.692,220.495,1292.312,210.101C1305.434,195.925,1322.9,185.455,1349.495,169.697C1402.141,138.502,1596,49.187,1596,49.187" stroke="#71717a" stroke-width="1" fill="none" stroke-linecap="round" stroke-miterlimit="4"></path><path d="M4,244.85C4,244.85,172.201,237.525,233.166,240.025C273.819,241.692,299.472,243.063,334.551,250.505C374.224,258.922,430.801,276.917,458.497,290.909C474.161,298.822,485.175,305.875,492.42,315.152C498.148,322.485,503.788,331.892,501.986,339.394C499.849,348.288,486.945,357.612,474.533,363.636C456.923,372.183,434.393,374.77,402.01,376.857C337.8,380.993,185.805,360.173,112.563,361.896C67.628,362.953,4,372.644,4,372.644" stroke="#71717a" stroke-width="1" fill="none" stroke-linecap="round" stroke-miterlimit="4"></path><path d="M1157.709,796C1157.709,796,1128.942,778.819,1123.79,767.677C1119.384,758.147,1120.05,745.403,1124.08,735.354C1128.798,723.585,1141.102,714.015,1154.417,703.03C1173.487,687.299,1203.335,670.083,1231.336,654.545C1262.8,637.087,1299.735,619.215,1334.673,604.534C1369.038,590.094,1406.313,576.078,1439.196,566.988C1467.442,559.179,1493.015,553.509,1519.598,551.145C1545.268,548.863,1596,552.457,1596,552.457" stroke="#71717a" stroke-width="1" fill="none" stroke-linecap="round" stroke-miterlimit="4"></path><path d="M1596,327.465C1596,327.465,1544.556,330.855,1519.598,328.072C1494.982,325.326,1470.173,319.472,1447.236,311.121C1424.648,302.897,1398.022,292.093,1382.915,278.589C1371.213,268.13,1360.133,254.394,1359.209,242.424C1358.371,231.58,1366.193,220.052,1373.881,210.101C1383.124,198.136,1397.236,188.867,1413.744,177.778C1436.881,162.235,1471.814,143.821,1502.13,129.293C1532.56,114.71,1596,90.482,1596,90.482" stroke="#71717a" stroke-width="1" fill="none" stroke-linecap="round" stroke-miterlimit="4"></path><path d="M1596,778.075L1559.799,795.633" stroke="#71717a" stroke-width="1" fill="none" stroke-linecap="round" stroke-miterlimit="4"></path><path d="M1251.734,796C1251.734,796,1215.78,781.721,1206.03,771.304C1198.541,763.303,1192.753,752.929,1193.27,743.434C1193.843,732.912,1202.966,721.515,1212.566,711.111C1225.626,696.957,1248.005,683.344,1269.336,670.707C1293.939,656.133,1323.642,641.87,1352.755,630.303C1382.853,618.345,1416.714,607.092,1447.236,600.522C1474.831,594.583,1501.931,590.813,1527.638,590.937C1551.356,591.051,1596,599.754,1596,599.754" stroke="#71717a" stroke-width="1" fill="none" stroke-linecap="round" stroke-miterlimit="4"></path><path d="M1596,283.615C1596,283.615,1560.236,285.79,1543.719,284.104C1528.515,282.552,1513.291,279.456,1500.419,274.747C1489.069,270.596,1477.538,265.853,1470.008,258.586C1463.219,252.033,1456.573,242.567,1456,234.343C1455.446,226.396,1460.489,217.603,1465.821,210.101C1472.143,201.206,1480.536,194.345,1493.47,185.859C1516.183,170.956,1596,137.4,1596,137.4" stroke="#71717a" stroke-width="1" fill="none" stroke-linecap="round" stroke-miterlimit="4"></path><path d="M1596,740.561L1479.397,795.871" stroke="#71717a" stroke-width="1" fill="none" stroke-linecap="round" stroke-miterlimit="4"></path><path d="M1303.155,703.03C1313.316,694.116,1325.113,686.605,1340.952,678.788C1364.1,667.363,1400.773,652.233,1431.156,646.202C1460.346,640.408,1497.654,638.922,1519.598,642.2C1533.224,644.236,1543.572,648.088,1551.759,653.643C1558.436,658.173,1564.682,663.988,1566.735,670.707C1568.865,677.678,1567.514,686.937,1563.635,694.949C1558.357,705.85,1544.72,717.622,1532.001,727.273C1517.351,738.389,1497.645,748.484,1479.397,756.146C1461.335,763.731,1442.07,769.561,1423.116,773.135C1404.541,776.637,1385.52,778.52,1366.834,777.623C1348.068,776.721,1325.293,773.393,1310.763,767.677C1300.258,763.544,1290.324,758.755,1285.771,751.515C1281.645,744.955,1280.447,734.892,1282.699,727.273C1285.265,718.592,1294.614,710.522,1303.155,703.03" stroke="#71717a" stroke-width="1" fill="none" stroke-linecap="round" stroke-miterlimit="4"></path></svg>